<?xml version="1.0" encoding="utf-8"?>
<!-- Generator: Adobe Illustrator 25.2.0, SVG Export Plug-In . SVG Version: 6.00 Build 0)  -->
<svg version="1.1" id="Layer_1" xmlns="http://www.w3.org/2000/svg" xmlns:xlink="http://www.w3.org/1999/xlink" x="0px" y="0px"
	 viewBox="0 0 409.6 144.3" style="enable-background:new 0 0 409.6 144.3;" xml:space="preserve">
<style type="text/css">
	.st0{fill:#A7BDC7;}
	.st1{fill:#3C5343;}
	.st2{fill:#65843C;}
	.st3{fill:#485E2B;}
	.st4{fill:#2B381A;}
	.st5{fill:#9FD05E;}
</style>
<path class="st0" d="M9.8,79.8c0.6,0,1.3-0.1,1.9-0.1c1.6-0.1,3.2-0.1,4.7,0.1c-1.7-2.5-2.7-5.5-2.9-8.5
	c-0.9-11.7-1.6-14.7-1.6-14.7s-1.2-10.9,8.7-12.9c2.6-0.4,5.1-1.5,7.2-3.2c2.3-1.9,3.1-4.4,6.3-5s6.4,0,9.5,0.6
	c4.3,0.8,9.1,2.2,12.6,5l0.2,0.1c3.2,2.8,6,6.2,8.2,9.9c2.1,3.4,4.3,6.9,4.3,11c0,0.8,0,1.6,0,2.4c-0.1,2-0.2,4-0.5,6
	c-0.7,4.3-1.9,8.9-4.8,12.3c-1,1.2-2.2,2.2-3.6,3c-2.4,1.4-4.8,2.6-7.4,3.7H390c0-1.5,0.1-2.9,0.3-4.4c0.4-3.4,1.2-7.3,3.2-10.2
	c0,0,0.1-0.1,0.1-0.1c2-2.7,4.5-5.1,7.3-7c2.5-1.8,5.2-3.8,8.4-4.1h0.3V40.9c0-22.6-18.3-40.9-40.9-40.9H40.9C18.3,0,0,18.3,0,40.9
	v44c0.4-0.3,0.9-0.7,1.3-1C3.9,82,6.5,80.1,9.8,79.8z"/>
<path class="st1" d="M401.7,123.4c-2,1-3.6,3.1-5.7,3.3c-1.2,0.1-2.5-0.3-3.4-1.1c-1-0.7-1.8-1.6-2.8-2.3c-1.3-0.9-2.8-1.4-4.1-2.3
	c-1.9-1.4-3.5-3.3-4.6-5.5c-0.9-1.6-1.6-3.3-2-5.1H32.5c-0.2,0.4-0.3,0.8-0.5,1.3s-0.4,1-0.6,1.4c-0.8,2.2-2.1,4.3-3.7,6
	c-2.1,2-4.7,3.3-7.5,3.7C11,124.3,8.7,125,8.7,125c-0.8,0.1-1.6,0.2-2.4,0.1c7.5,11.9,20.5,19.1,34.6,19.2h327.8
	c15.2-0.1,29.1-8.5,36.2-21.9C403.8,122.6,402.7,122.9,401.7,123.4z"/>
<path class="st0" d="M31.5,89.5L31.5,89.5l0.1,0.1L31.5,89.5z"/>
<path class="st2" d="M33.4,93.6c-0.5-1.4-1.2-2.7-1.9-4v-0.1c-0.8-1.3-1.6-2.7-2.5-4c-0.7-1-1.6-1.9-2.6-2.7
	c-2.9-2.1-6.5-2.8-10-3.1l0,0c-1.6-0.1-3.2-0.1-4.7-0.1c-0.6,0-1.3,0.1-1.9,0.1c-3.2,0.3-5.9,2.2-8.4,4.1c-0.4,0.3-0.9,0.7-1.3,1
	v18.5c0,2.4,0.2,4.7,0.6,7.1c0.9,5.2,2.9,10.2,5.7,14.7c0.8,0,1.6,0,2.3-0.1c0,0,2.3-0.7,11.5-2.1c2.8-0.4,5.5-1.7,7.5-3.7
	c1.6-1.7,2.8-3.8,3.7-6c0.2-0.5,0.4-1,0.6-1.4s0.3-0.8,0.5-1.3c1-2.4,1.7-4.9,2.1-7.5C35.1,99.8,34.7,96.6,33.4,93.6z"/>
<path class="st3" d="M405,77.7c-0.4,2-1.2,4-2.4,5.7c-2.5,3.4-5.7,6.1-9.4,8.1c-2.9,1.6-6,3-9,4.4c-0.8,0.5-1.6,0.8-2.5,1
	c-1.9,0.3-3.9,0-5.7-0.6c-0.7-0.2-1.4-0.5-2-0.9c-2.4-1.2-4.5-2.9-6.7-4.3c-0.8-0.5-1.6-1.1-2.3-1.8c-0.5-0.6-0.9-1.3-1.1-2
	c-0.8-2.3-1-4.8-2.1-7c-1.3-2.5-3.8-4.5-4.1-7.2c-0.1-1.5,0.4-3.1,1.4-4.3c0.9-1.2,2-2.3,2.9-3.5c1.1-1.6,1.8-3.4,2.9-5
	c1.8-2.4,4.2-4.4,6.9-5.7c2-1.3,4.3-2.1,6.6-2.6c3.4-0.4,6.9,0,10.2,1.2c2.1,0.6,4.2,1.3,6.1,2.3c2,1.2,2.8,2.7,3.9,4.6l2.8,4.7
	c1.4,2.1,2.5,4.3,3.3,6.7C405.4,73.5,405.4,75.7,405,77.7z"/>
<path class="st3" d="M408.2,109c0,0-8.5,1.6-10.7-6.1c-0.5-2.1-1.5-4-2.9-5.5c-1.4-1.4-3.1-2.1-4-3.8c-0.1-0.3-0.2-0.6-0.3-0.9
	c-0.1-0.5-0.2-1-0.3-1.5l-1,0.6l-3,1.8l-0.8,0.5c-1.5,0.9-2.7,1.5-3.7,3.2c-0.8,1.6-1.4,3.2-1.8,4.9c-0.9,2.6-1.2,5.4-0.9,8.2
	c0,0.1,0,0.1,0,0.2c0.4,1.8,1.1,3.5,2,5.1c1.1,2.2,2.7,4,4.6,5.5c1.3,0.9,2.8,1.4,4.1,2.3c1,0.7,1.9,1.6,2.8,2.3
	c1,0.8,2.2,1.2,3.4,1.1c2.1-0.2,3.8-2.3,5.7-3.3c1-0.5,2.1-0.8,3.1-1c1.8-3.3,3.1-6.9,3.9-10.6c0.2-1,0.4-2,0.5-3
	C408.5,108.9,408.2,109,408.2,109z"/>
<path class="st4" d="M409.3,63.8c-3.2,0.3-5.9,2.2-8.4,4.1c-2.8,1.9-5.2,4.3-7.3,7c0,0-0.1,0.1-0.1,0.1c-2,2.9-2.8,6.8-3.2,10.2
	c-0.2,1.4-0.3,2.9-0.3,4.4c0,0.5,0,1.1,0.1,1.6c0.1,0.5,0.1,1,0.3,1.5c0.1,0.3,0.2,0.6,0.3,0.9c0.8,1.8,2.6,2.4,4,3.8
	c1.4,1.6,2.4,3.5,2.9,5.5c2.1,7.7,10.7,6.1,10.7,6.1s0.3-0.1,1-0.3c0.2-1.8,0.4-3.5,0.4-5.3V63.7L409.3,63.8z"/>
<path class="st4" d="M52.6,89.6c2.5-1.1,5-2.3,7.4-3.6c1.4-0.8,2.6-1.8,3.6-3c2.9-3.4,4.2-8,4.8-12.3c0.3-2,0.5-4,0.5-6
	c0-0.8,0-1.6,0-2.4c0-4.1-2.3-7.7-4.3-11c-2.2-3.7-5-7-8.2-9.9l-0.2-0.1c-3.5-2.8-8.3-4.2-12.6-5c-3.1-0.6-6.4-1.1-9.5-0.6
	s-4.1,3.1-6.3,5c-2.1,1.6-4.6,2.7-7.2,3.2c-9.9,2-8.7,12.9-8.7,12.9s0.7,3,1.6,14.7c0.2,3,1.2,6,2.9,8.5l0,0c3.5,0.3,7.1,1,10,3.1
	c1,0.7,1.9,1.6,2.6,2.6c0.9,1.3,1.7,2.7,2.5,4l0.1,0.1L52.6,89.6z"/>
<path class="st3" d="M80.6,84.7c-0.3,1.5-0.9,2.8-1.7,4.1c-1.7,2.4-4,4.4-6.7,5.8c-2.1,1.2-4.2,2.1-6.4,3.1
	c-0.5,0.3-1.1,0.6-1.8,0.7c-1.4,0.2-2.8,0-4.1-0.4c-0.5-0.2-0.9-0.4-1.4-0.6c-1.6-0.9-3.2-2-4.8-3.1c-0.6-0.3-1.2-0.8-1.6-1.3
	c-0.4-0.4-0.6-0.9-0.8-1.4c-0.6-1.6-0.7-3.4-1.5-5c-0.9-1.8-2.7-3.2-2.9-5.1c0-1.1,0.3-2.2,1-3c0.6-0.9,1.5-1.6,2.1-2.5
	c0.8-1.1,1.3-2.5,2-3.6c1.3-1.7,3-3.1,4.9-4.1c1.4-0.9,3-1.5,4.7-1.8c2.5-0.3,4.9,0,7.3,0.8c1.5,0.4,3,1,4.4,1.7
	c1.4,0.8,2,2,2.8,3.3l2,3.3c1,1.5,1.8,3.1,2.3,4.8C80.8,81.7,80.9,83.2,80.6,84.7z"/>
<path class="st5" d="M390,89.6H31.5c0.7,1.3,1.4,2.6,1.9,4c1.2,3,1.6,6.2,1.2,9.4c-0.4,2.6-1.1,5.1-2.1,7.5H379c0-0.1,0-0.1,0-0.2
	c-0.3-2.8,0-5.5,0.9-8.2c0.4-1.7,1-3.4,1.8-4.9c0.9-1.6,2.2-2.2,3.7-3.2l0.8-0.5l3-1.8l1-0.6C390.1,90.7,390,90.1,390,89.6z"/>
<path class="st4" d="M31.2,101.4c1.1,0.2,2.1,0.6,3,1.2c1.8,1.3,3.2,3,4.2,4.9c0.9,1.5,1.6,3.1,2.3,4.7c0.2,0.4,0.4,0.8,0.5,1.3
	c0.1,1,0,2-0.3,3c-0.1,0.3-0.3,0.7-0.4,1c-0.7,1.2-1.4,2.4-2.2,3.5c-0.2,0.4-0.6,0.9-0.9,1.2c-0.3,0.3-0.7,0.5-1.1,0.6
	c-1.2,0.3-2.5,0.7-3.6,1.2c-1.3,0.7-2.4,2-3.8,2.2c-0.8,0-1.6-0.2-2.2-0.7c-0.6-0.5-1.2-1.1-1.9-1.5c-0.8-0.6-1.8-0.9-2.6-1.5
	c-1.3-0.9-2.3-2.2-3-3.6c-0.6-1.1-1.1-2.2-1.4-3.4c-0.2-1.8,0-3.6,0.6-5.3c0.3-1.1,0.7-2.2,1.2-3.2c0.6-0.9,1.4-1.6,2.4-2.1l2.5-1.5
	c1.1-0.7,2.3-1.3,3.5-1.7C29.1,101.3,30.2,101.2,31.2,101.4z"/>
</svg>
