<svg xmlns="http://www.w3.org/2000/svg" viewBox="0 0 337.42 71.43"><defs><style>.cls-1{fill:#b8a381;}.cls-10,.cls-2{fill:#aab0be;}.cls-3{fill:#e8434b;}.cls-4{fill:#545454;}.cls-5{font-size:9.9px;font-family:ArialRoundedMTBold, Arial Rounded MT Bold;letter-spacing:-0.03em;}.cls-5,.cls-6{fill:#fff;}.cls-7{fill:#da512c;}.cls-8{fill:#888e9a;}.cls-9{fill:#e6e6e6;}.cls-10{opacity:0.39;}.cls-11{fill:#fbf6f4;}</style></defs><g id="Layer_2" data-name="Layer 2"><g id="Layer_4" data-name="Layer 4"><path class="cls-1" d="M67.76,40.87c-.26-2.74-1.28-7.42-1.29-7.47l.1,0s1,4.73,1.29,7.48Z"/><polygon class="cls-1" points="66.02 33.5 66.49 33.39 66.86 35 66.4 35.17 66.02 33.5"/><path class="cls-1" d="M64.74,30.8l1.4-.33.72,2.93-1.18.33a.58.58,0,0,1-.15-.06S64.74,30.8,64.74,30.8Z"/><path class="cls-1" d="M65.72,33.87,65,34l-.53-3.34.16-.07A18.33,18.33,0,0,1,65.72,33.87Z"/><polygon class="cls-1" points="66.58 36.14 67.03 36.01 67.31 37.45 66.82 37.68 66.58 36.14"/><polygon class="cls-1" points="66.86 38.77 67.47 38.42 67.71 39.93 67.13 40.27 66.86 38.77"/><path class="cls-1" d="M68,44.51a1.12,1.12,0,0,0-.35.38l-.38-3.68.59-.31a24.14,24.14,0,0,1,.28,3.21S68.38,44.32,68,44.51Z"/><polygon class="cls-1" points="67.39 37.41 66.65 37.74 66.86 38.77 67.53 38.42 67.39 37.41"/><polygon class="cls-1" points="67.12 35.98 66.32 36.23 66.1 35.3 66.95 34.95 67.12 35.98"/><polygon class="cls-1" points="67.13 40.27 67.73 39.92 67.86 40.91 67.28 41.22 67.13 40.27"/><polygon class="cls-1" points="64.49 30.68 64.1 30.85 64.78 33.99 65.02 34.02 64.49 30.68"/><path class="cls-1" d="M66.58,33.48a72.61,72.61,0,0,1,1.54,10.66l.31-.6s-.61-7-1.57-10.14Z"/><path class="cls-1" d="M65.67,33.88A50.48,50.48,0,0,1,67.81,47l-.87.07s-1-10.46-1.83-13"/><path class="cls-1" d="M67.68,44.7l.75-1.16c1.12-.86,10.72-1.47,11.15-.39l.61,2.18-12.44.46Z"/><path class="cls-1" d="M103.42,41.49c-.26-2.74-1.27-7.42-1.28-7.47l.1,0s1,4.73,1.28,7.48Z"/><polygon class="cls-1" points="101.68 34.12 102.15 34.01 102.52 35.62 102.06 35.79 101.68 34.12"/><path class="cls-1" d="M100.41,31.42l1.39-.34.72,2.94-1.17.33a.64.64,0,0,1-.16-.06S100.41,31.42,100.41,31.42Z"/><path class="cls-1" d="M101.39,34.49l-.7.15-.54-3.34.17-.07A19.8,19.8,0,0,1,101.39,34.49Z"/><polygon class="cls-1" points="102.24 36.76 102.69 36.63 102.97 38.07 102.48 38.3 102.24 36.76"/><polygon class="cls-1" points="102.52 39.39 103.13 39.04 103.37 40.55 102.79 40.89 102.52 39.39"/><path class="cls-1" d="M103.67,45.13a1.12,1.12,0,0,0-.35.38l-.38-3.68.59-.31a24.12,24.12,0,0,1,.28,3.2S104,44.94,103.67,45.13Z"/><polygon class="cls-1" points="103.05 38.03 102.31 38.36 102.52 39.39 103.2 39.04 103.05 38.03"/><polygon class="cls-1" points="102.79 36.6 101.98 36.85 101.76 35.92 102.61 35.57 102.79 36.6"/><polygon class="cls-1" points="102.79 40.89 103.39 40.54 103.52 41.52 102.94 41.83 102.79 40.89"/><polygon class="cls-1" points="100.15 31.3 99.76 31.47 100.44 34.61 100.69 34.64 100.15 31.3"/><path class="cls-1" d="M102.24,34.1a72.35,72.35,0,0,1,1.54,10.66l.31-.6s-.61-7-1.57-10.14Z"/><path class="cls-1" d="M101.34,34.5a50.76,50.76,0,0,1,2.13,13.07l-.86.07s-1-10.46-1.84-13"/><path class="cls-1" d="M103.34,45.32l.75-1.16c1.12-.86,10.72-1.48,11.15-.39l.61,2.18-12.44.46Z"/><path class="cls-1" d="M137.89,41.1c-.25-2.74-1.27-7.42-1.28-7.47l.1,0s1,4.73,1.29,7.48Z"/><polygon class="cls-1" points="136.16 33.73 136.63 33.62 136.99 35.23 136.54 35.4 136.16 33.73"/><path class="cls-1" d="M134.88,31l1.39-.33.72,2.93-1.17.33a.64.64,0,0,1-.16-.06S134.88,31,134.88,31Z"/><path class="cls-1" d="M135.86,34.1l-.7.15-.54-3.34.17-.07A18.33,18.33,0,0,1,135.86,34.1Z"/><polygon class="cls-1" points="136.71 36.37 137.16 36.24 137.44 37.68 136.95 37.91 136.71 36.37"/><polygon class="cls-1" points="136.99 39 137.61 38.65 137.84 40.16 137.26 40.5 136.99 39"/><path class="cls-1" d="M138.14,44.74a1.12,1.12,0,0,0-.35.38l-.38-3.68.59-.31a23.85,23.85,0,0,1,.29,3.21S138.51,44.55,138.14,44.74Z"/><polygon class="cls-1" points="137.53 37.64 136.79 37.97 136.99 39 137.67 38.65 137.53 37.64"/><polygon class="cls-1" points="137.26 36.21 136.45 36.46 136.23 35.53 137.09 35.18 137.26 36.21"/><polygon class="cls-1" points="137.26 40.5 137.86 40.15 137.99 41.13 137.41 41.44 137.26 40.5"/><polygon class="cls-1" points="134.62 30.91 134.24 31.08 134.91 34.22 135.16 34.25 134.62 30.91"/><path class="cls-1" d="M136.71,33.71a70.87,70.87,0,0,1,1.54,10.66l.31-.6s-.61-7-1.57-10.14Z"/><path class="cls-1" d="M135.81,34.11A50.48,50.48,0,0,1,138,47.18l-.87.07s-1-10.46-1.84-13"/><path class="cls-1" d="M137.81,44.93l.75-1.16c1.12-.86,10.72-1.48,11.15-.39l.61,2.18L137.88,46Z"/><path class="cls-1" d="M176.58,40.78c-.26-2.74-1.27-7.43-1.28-7.47l.1,0s1,4.73,1.28,7.48Z"/><polygon class="cls-1" points="174.84 33.41 175.31 33.3 175.68 34.91 175.22 35.08 174.84 33.41"/><path class="cls-1" d="M173.57,30.71l1.39-.34.72,2.94-1.17.32-.16-.05S173.57,30.71,173.57,30.71Z"/><path class="cls-1" d="M174.55,33.78l-.7.15-.54-3.34.17-.08A19.82,19.82,0,0,1,174.55,33.78Z"/><polygon class="cls-1" points="175.4 36.05 175.85 35.92 176.13 37.36 175.64 37.59 175.4 36.05"/><polygon class="cls-1" points="175.68 38.68 176.29 38.33 176.53 39.84 175.95 40.18 175.68 38.68"/><path class="cls-1" d="M176.83,44.42a1,1,0,0,0-.35.38l-.38-3.68.59-.31A24,24,0,0,1,177,44S177.2,44.23,176.83,44.42Z"/><polygon class="cls-1" points="176.21 37.32 175.47 37.65 175.68 38.68 176.36 38.33 176.21 37.32"/><polygon class="cls-1" points="175.95 35.89 175.14 36.14 174.92 35.21 175.77 34.86 175.95 35.89"/><polygon class="cls-1" points="175.95 40.18 176.55 39.83 176.68 40.81 176.1 41.12 175.95 40.18"/><polygon class="cls-1" points="173.31 30.59 172.92 30.76 173.6 33.9 173.85 33.93 173.31 30.59"/><path class="cls-1" d="M175.4,33.38A72.61,72.61,0,0,1,176.94,44l.31-.6s-.61-7-1.57-10.13Z"/><path class="cls-1" d="M174.5,33.79a50.76,50.76,0,0,1,2.13,13.07l-.86.07s-1-10.47-1.84-13"/><path class="cls-1" d="M176.5,44.61l.75-1.17c1.12-.85,10.72-1.47,11.15-.38l.61,2.18-12.44.46Z"/><path class="cls-1" d="M215.15,40.84c-.26-2.74-1.28-7.42-1.29-7.47l.1,0s1,4.73,1.29,7.48Z"/><polygon class="cls-1" points="213.41 33.47 213.88 33.36 214.25 34.97 213.79 35.14 213.41 33.47"/><path class="cls-1" d="M212.13,30.77l1.4-.33.72,2.93-1.18.33a.58.58,0,0,1-.15-.06S212.13,30.77,212.13,30.77Z"/><path class="cls-1" d="M213.11,33.84l-.7.15-.53-3.34.16-.07A18.33,18.33,0,0,1,213.11,33.84Z"/><polygon class="cls-1" points="213.97 36.11 214.41 35.98 214.7 37.42 214.21 37.65 213.97 36.11"/><polygon class="cls-1" points="214.25 38.74 214.86 38.39 215.1 39.9 214.51 40.24 214.25 38.74"/><path class="cls-1" d="M215.4,44.48a1.12,1.12,0,0,0-.35.38l-.38-3.68.59-.31a24.14,24.14,0,0,1,.28,3.21S215.77,44.29,215.4,44.48Z"/><polygon class="cls-1" points="214.78 37.38 214.04 37.71 214.25 38.74 214.92 38.39 214.78 37.38"/><polygon class="cls-1" points="214.51 35.95 213.71 36.2 213.49 35.27 214.34 34.92 214.51 35.95"/><polygon class="cls-1" points="214.51 40.24 215.12 39.89 215.25 40.88 214.66 41.19 214.51 40.24"/><polygon class="cls-1" points="211.88 30.65 211.49 30.82 212.17 33.96 212.41 33.99 211.88 30.65"/><path class="cls-1" d="M214,33.45a72.61,72.61,0,0,1,1.54,10.66l.31-.6s-.61-7-1.57-10.14Z"/><path class="cls-1" d="M213.06,33.85a50.48,50.48,0,0,1,2.14,13.07l-.87.07s-1-10.46-1.83-13"/><path class="cls-1" d="M215.07,44.67l.75-1.16c1.12-.86,10.72-1.48,11.15-.39l.61,2.18-12.44.46Z"/><rect class="cls-2" x="73.3" y="8.87" width="1.35" height="39.24" transform="translate(-5.1 22.96) rotate(-17.06)"/><path class="cls-3" d="M309.88,45.26H36.32V9.73h6V2.23H4.22V65.11a6.32,6.32,0,0,0,6.32,6.32H273.45a32.93,32.93,0,0,0,19.68-6.36C298.3,61.21,304.32,55.05,309.88,45.26Z"/><path class="cls-2" d="M42.29,3.61C27,17.54,4.22,32.86,4.22,32.86V2.23H42.29Z"/><rect class="cls-4" x="309.2" y="44.72" width="28.2" height="1.89" transform="translate(-1.52 12.46) rotate(-2.2)"/><text class="cls-5" transform="translate(122.79 58.48) scale(0.95 1)">031-829-870</text><text class="cls-5" transform="translate(255.37 58.6) scale(0.95 1)">LJ-30</text><path class="cls-2" d="M247.09,62.54H4.22a1,1,0,0,1,0-2H246.08V47.15a1,1,0,0,1,1-1h61.69a1,1,0,0,1,0,2H248.11V61.52A1,1,0,0,1,247.09,62.54Z"/><polygon class="cls-2" points="102.94 45.26 98.44 45.26 87.11 9.73 91.61 9.73 102.94 45.26"/><polygon class="cls-2" points="147.25 45.26 142.75 45.26 131.42 9.73 135.91 9.73 147.25 45.26"/><polygon class="cls-2" points="192.99 45.26 188.49 45.26 177.16 9.73 181.65 9.73 192.99 45.26"/><polygon class="cls-2" points="244.16 45.26 239.67 45.26 227.54 6.42 232.04 6.42 244.16 45.26"/><path class="cls-2" d="M246.79,15H231.65a.47.47,0,1,1,0-.94h15.14a.47.47,0,0,1,0,.94Z"/><path class="cls-2" d="M247.09,48a.88.88,0,0,1-.88-.88V14.56a.88.88,0,0,1,1.76,0V47.15A.87.87,0,0,1,247.09,48Z"/><path class="cls-2" d="M308.78,48a.87.87,0,0,1-.88-.88V15.44H247.09a.88.88,0,1,1,0-1.76h61.69a.88.88,0,0,1,.88.88V47.15A.88.88,0,0,1,308.78,48Z"/><path class="cls-2" d="M269.71,48a.87.87,0,0,1-.88-.88V14.56a.88.88,0,0,1,1.76,0V47.15A.87.87,0,0,1,269.71,48Z"/><path class="cls-2" d="M296.43,48a.88.88,0,0,1-.88-.88V14.56a.88.88,0,0,1,1.76,0V47.15A.87.87,0,0,1,296.43,48Z"/><path class="cls-2" d="M308.78,22.38h-74.6a.47.47,0,1,1,0-.94h74.6a.47.47,0,1,1,0,.94Z"/><path class="cls-2" d="M308.59,40.27h-61.8a.47.47,0,1,1,0-.94h61.8a.47.47,0,0,1,0,.94Z"/><path class="cls-6" d="M325.73,43.53a9.56,9.56,0,0,1-12.94-3.8,9.31,9.31,0,1,1,16.11-9.3A9.55,9.55,0,0,1,325.73,43.53Zm-8.28-14.21c-3.17,1.83-4.05,5.58-2.06,9s5.78,4.49,8.95,2.66,4-5.73,2-9.19A6.23,6.23,0,0,0,317.45,29.32Z"/><polygon class="cls-7" points="318.1 29.03 316.95 29.69 315.39 26.95 316.54 26.29 318.1 29.03"/><polygon class="cls-7" points="315.67 38.76 313.11 40.28 312.48 39.18 315.04 37.67 315.67 38.76"/><polygon class="cls-7" points="326.3 43.2 325.15 43.86 323.8 41.31 324.95 40.64 326.3 43.2"/><polygon class="cls-7" points="329.22 30.98 326.62 32.55 325.98 31.46 328.58 29.88 329.22 30.98"/><path class="cls-2" d="M307.89,31.33H247.35a.48.48,0,0,1,0-.95h60.54a.48.48,0,0,1,0,.95Z"/><path class="cls-8" d="M310.8,45.67a.47.47,0,0,1-.47-.47V17.85a.46.46,0,0,1,.18-.37.47.47,0,0,1,.41-.09l23.43,6.08a.47.47,0,0,1,.36.45V44.3a.48.48,0,0,1-.95,0v-20l-22.48-5.83V45.2A.48.48,0,0,1,310.8,45.67Z"/><path class="cls-8" d="M334.24,32.83h-.12l-23.44-6.08a.48.48,0,0,1-.34-.58.49.49,0,0,1,.58-.34l23.43,6.08a.47.47,0,0,1,.34.58A.46.46,0,0,1,334.24,32.83Z"/><path class="cls-8" d="M334.24,41.78h-.12l-23.44-6.08a.48.48,0,1,1,.24-.92l23.43,6.08a.47.47,0,0,1-.11.93Z"/><path class="cls-8" d="M45.87,3.63V2.91S20.75-3.64.33,2.92c-.45.14-.44,1.62,0,1.64A239.36,239.36,0,0,0,45.87,3.63Z"/><polygon class="cls-2" points="259.66 45.26 257.42 45.26 246.08 9.73 248.33 9.73 259.66 45.26"/><polygon class="cls-8" points="233.39 10.75 42.29 10.75 42.29 8.72 232.58 7.84 233.39 10.75"/><rect class="cls-2" x="42.29" y="5.74" width="190.53" height="1.35"/><path class="cls-8" d="M42.29,9.73H233.07l-3.66-6.58S62.81,2.54,42.29,5.6Z"/><path class="cls-8" d="M42.31,5.94l0-.68c.56,0,58.31-3,187.13-2.25v.67C100.62,2.93,42.88,5.91,42.31,5.94Z"/><polygon class="cls-9" points="248.93 11.48 248.17 9.62 229.41 6.9 229.41 4.12 248.17 9.62 248.93 11.48"/><path class="cls-9" d="M248.93,12.56a1.08,1.08,0,0,1-1-.67l-.53-1.29L229.25,8a1.08,1.08,0,0,1-.92-1.07V4.12a1.07,1.07,0,0,1,1.38-1l18.76,5.5a1.1,1.1,0,0,1,.69.61h0a0,0,0,0,1,0,0h0l.76,1.85a1,1,0,0,1,.08.42,1.09,1.09,0,0,1-.67,1A1.15,1.15,0,0,1,248.93,12.56ZM230.49,6l2.7.39-2.7-.79Z"/><polygon class="cls-2" points="36.32 9.73 51.48 9.73 62 45.26 36.32 45.26 36.32 9.73"/><path class="cls-2" d="M12.26,33.33H4a.47.47,0,0,1,0-.94h8.22a.47.47,0,0,1,0,.94Z"/><polygon class="cls-10" points="51.78 10.75 229.13 10.69 239.88 45.26 62 45.26 51.78 10.75"/><path class="cls-3" d="M42.87,25.53h1.45a5,5,0,0,0,.83.19A3.28,3.28,0,0,1,47,26.79c.06.07.19.21,0,.23s-.24.22-.3.37a3.47,3.47,0,0,0-.12,1.11c-.23-.32-.07-.67-.08-1a1.76,1.76,0,0,0,.11,1.72,11.31,11.31,0,0,0,.86,1.08,5.56,5.56,0,0,0,1,1,5.51,5.51,0,0,0-.53-1.32.5.5,0,0,0-.35-.3,1.59,1.59,0,0,1-1-1c-.05-.12,0-.09.08-.08s.09.19.2.34a2.73,2.73,0,0,1,.23-1.55h.06c.2-.05.49,0,.59-.14.32-.41.82-.36,1.22-.53h.18c.13,0,.22.1.18.25-.18,0-.18.11-.17.24s-.19.21-.19.37.13.06.19,0h.12c.05,0,.22.07.12-.12l0-.06v-.17a.41.41,0,0,1,.25-.21v.2c-.08.09,0,.18,0,.24a8.3,8.3,0,0,1,.56,1,1.31,1.31,0,0,0,.17.24c.06.06.16.15.23.09s0-.16,0-.23a10.79,10.79,0,0,0-.89-1.24c.09-.17.27-.18.43-.19a.25.25,0,0,0,.21,0h.32a5.7,5.7,0,0,0,1.17.05l.19.19c0,.09,0,.12.11.12l-.1.17c-.15-.11-.22,0-.29.1s-.07,0-.11,0l-.61.08c.08.13.19.1.28.12s.16,0,.15.11-.09.11-.16.12-.3-.09-.43-.17-.15-.18-.26-.07,0,.19,0,.29a.87.87,0,0,1,.17.38c0,.24-.1.36-.31.29a.57.57,0,0,1-.3-.23,2.28,2.28,0,0,0-.21-.3c-.22-.25-.43-.51-.83-.37a.3.3,0,0,1-.34-.08c-.1-.13-.18-.07-.27,0a.34.34,0,0,0,.1.56,2.87,2.87,0,0,0,.57.17,1.93,1.93,0,0,1,1.59,1.17,2.78,2.78,0,0,1,.1,1.34,3.76,3.76,0,0,1-1.1,2l-.16.13a5.43,5.43,0,0,1-3.56,1.56,6.27,6.27,0,0,1-3.71-1,4,4,0,0,0-.57-.33.45.45,0,0,0-.62.18c-.14.25,0,.41.19.54a.8.8,0,0,0,.79.14c.09,0,.19-.12.31,0a1,1,0,0,1-1,.59A1.58,1.58,0,0,1,40,34a1.53,1.53,0,0,1,.46-1.84.91.91,0,0,0-.93,0c-.3.22-.32.53-.16.92a.84.84,0,0,1-.45-.85,1.07,1.07,0,0,1,1.69-.67,1.46,1.46,0,0,0,.92.33,1.7,1.7,0,0,1,.85.27,9.22,9.22,0,0,1,1,.63,1.35,1.35,0,0,0,1.9-.55.38.38,0,0,0-.38.12c-.14.17-.2.06-.24-.06s0-.26-.11-.35c-.47.31-.47.31-.51-.27a.58.58,0,0,0-.15-.35c-.12-.12-.25,0-.38,0,0-.3.15-.6,0-.84-.34-.43-.82-.11-1.26-.15a.62.62,0,0,0,.09-.11c.56-.86.34-1.41-.65-1.59-.25-.05-.29-.13-.29-.36a1.55,1.55,0,0,0-1.79-1.68c-.21,0-.2-.09-.13-.21a.84.84,0,0,1,.52-.34c.41-.12.83-.2,1.25-.3a7.66,7.66,0,0,0,1.25-.24h.24C42.75,25.61,42.81,25.54,42.87,25.53ZM42.29,27a2.23,2.23,0,0,0-2.41-.54,2.89,2.89,0,0,1,2.59,1.1,1.54,1.54,0,0,0,.6.35c-.06-.2-.1-.35-.16-.5s0-.17.13-.15.38.07.23.35a.55.55,0,0,0,0,.4c.08,0,.06-.07.07-.11a1.22,1.22,0,0,1,1.16-.76,1.31,1.31,0,0,1,1.08.88.81.81,0,0,1-.29.94c-.3.2-.54.14-.87-.2l-.07.2c-.23-.36-.22-.61,0-.78a.38.38,0,0,1,.56.05s0,.08,0,.09-.17-.09-.28,0c.12.06.22.27.37.05s0-.29-.15-.38a.5.5,0,0,0-.62,0,.69.69,0,0,0-.31.7,1,1,0,0,0,1.16.82,2.11,2.11,0,0,1,.75,0,1.17,1.17,0,0,1,.9.91l0-.07a1.17,1.17,0,0,0-1.33-.65,1.59,1.59,0,0,1-.75,0,1.17,1.17,0,0,1-.81-.86.87.87,0,0,1,.35-1,.64.64,0,0,1,.73-.08.65.65,0,0,1,.37.64c0,.27-.2.38-.46.28s-.24-.23-.31-.38a.11.11,0,0,0-.07.14.58.58,0,0,0,.66.4.55.55,0,0,0,.33-.64,1,1,0,0,0-1.48-.61c-.32.19-.41.53-.61.8A1.84,1.84,0,0,0,43,29.81a5,5,0,0,1,.17-.54.83.83,0,0,1,.29-.42c0,.25.23.42.16.65a1.53,1.53,0,0,0,.18,1c.06-.31,0-.56.11-.78a.6.6,0,0,1,.41.52,1,1,0,0,0,1.08.88L45,30.92a1,1,0,0,1-.35-.65c0-.13,0-.22.18-.22a4.22,4.22,0,0,0,.59-.09c.52-.08,1,.39.95.84-.34-.43-.61-.58-1-.52A1.16,1.16,0,0,1,46,32.05a4.3,4.3,0,0,0-.28.52c-.07.16-.06.36-.25.52v-.62a1.66,1.66,0,0,1-2.51.41,3,3,0,0,0-.83-.42,1.55,1.55,0,0,0-1.28.08,1.07,1.07,0,0,0-.59,1.07,1,1,0,0,0,.8.86l0-.07a.72.72,0,0,1,.42-1.26,1.6,1.6,0,0,1,1.1.15c.55.26,1.07.55,1.62.8a4.64,4.64,0,0,0,4.57-.29c.07,0,.21-.07.2-.19s-.13-.15-.22-.19a1.32,1.32,0,0,0-1.57.39,1.33,1.33,0,0,1-1.53.27,6.86,6.86,0,0,0,1.44-2c.06.49-.05.92,0,1.38.28-.25.52-.54.79-.79a.55.55,0,0,1,.92.09c.12.17.22.18.37.09a1.09,1.09,0,0,1,.25-.1c0,.05,0,.09,0,.12s0,.09.08.09a2.86,2.86,0,0,0,1.06-1.64,2.23,2.23,0,0,0,0-1.53,1.33,1.33,0,0,0-.7-.79c.58,1.12.6,1.93,0,2.51,0-.12,0-.22,0-.32A3.31,3.31,0,0,0,49.35,29a.78.78,0,0,0-.78-.44c-.06,0-.08,0-.12-.05-.19-.08-.15-.4-.41-.39,0,0,0-.06,0-.07.21-.19,0-.22-.11-.26s-.15,0-.17-.13-.22-.18-.36-.12-.38.14-.32.4a2,2,0,0,0,1.41,1.61c.14,0,.32,0,.45.15a1.71,1.71,0,0,0-.63.11l.21.14a2.5,2.5,0,0,1,.8.85.74.74,0,0,1-.1.91,1.6,1.6,0,0,1-1,.38.65.65,0,0,1-.66-.42,1.86,1.86,0,0,1-.13-.46,2.16,2.16,0,0,0-1.35-1.88c-.16-.06-.17-.13-.07-.25a.67.67,0,0,0,.14-.6c-.08.13-.12.27-.27.32a2,2,0,0,0-.2-1.28,3.61,3.61,0,0,1-.27-.67.75.75,0,0,0-.5-.56c.23.4.23.4.19.65a1.51,1.51,0,0,0-.92-.25A1.91,1.91,0,0,1,43,26.49c-.06.12.1.15.05.26-.39-.06-.63-.39-1-.57a4.22,4.22,0,0,0,.31.74Z"/><path class="cls-3" d="M49.84,33.16a7.49,7.49,0,0,0,1-1,3.19,3.19,0,0,1,.6-.5,1,1,0,0,1,1.32.31,4.83,4.83,0,0,1,.37.8v.67a3.65,3.65,0,0,1-.35.68c-.54.61-1.32.48-1.52-.21.48.15.66.11.85-.16a.48.48,0,0,0,.11-.36.41.41,0,0,0-.27-.34c-.13-.06-.23,0-.32.1a10.42,10.42,0,0,1-.77.72,3.61,3.61,0,0,1-2.47.84.85.85,0,0,1-.41-.09.42.42,0,0,1,.27-.12,3.55,3.55,0,0,0,2.44-1.14,2.41,2.41,0,0,1,.93-.6h.3A.81.81,0,0,1,52.33,34c.27-.05.47-.35.48-.77a1.11,1.11,0,0,0-.79-1.2L52,32a.36.36,0,0,0-.25,0l-.06,0a1.84,1.84,0,0,0-.94.62,8.93,8.93,0,0,1-1.31,1.14.45.45,0,0,1-.26.08Z"/><path class="cls-11" d="M51.89,32.78h-.3"/><path class="cls-3" d="M51.7,26.8a1.72,1.72,0,0,1-.76-.26.3.3,0,0,0-.44,0c0-.07-.09-.07-.13,0-.23.05-.4-.1-.62-.17.22-.24.47-.1.69-.14.06,0,.14.06.18-.05s.07-.1.09-.05c.19.44.6.46,1,.54Z"/><path class="cls-3" d="M48.86,26.36c.16.09.16.09.09.15a.89.89,0,0,1-1.13-.17c-.08-.11-.11-.2.08-.2h.54l-.24.13s0,0,0,0,0,.05,0,.05Z"/><path class="cls-3" d="M50,26.1l-.06,0c0-.1-.17-.06-.17-.18a3,3,0,0,1,.84.15v.09h-.42C50.09,26.07,50,26.11,50,26.1Z"/><path class="cls-3" d="M49.35,25.88c-.18.05-.38-.07-.52.14,0,0-.07,0-.11,0a1.62,1.62,0,0,1,0-.22c0-.06.05-.09.1-.07Z"/></g></g></svg>